<svg width="20" height="20" viewBox="0 0 20 20" fill="none" xmlns="http://www.w3.org/2000/svg">
<path fill-rule="evenodd" clip-rule="evenodd" d="M10 1.04175C7.8139 1.04175 6.0417 2.81395 6.0417 5.00008C6.0417 7.18621 7.8139 8.95841 10 8.95841C12.1862 8.95841 13.9584 7.18621 13.9584 5.00008C13.9584 2.81395 12.1862 1.04175 10 1.04175ZM7.2917 5.00008C7.2917 3.50431 8.50426 2.29175 10 2.29175C11.4958 2.29175 12.7084 3.50431 12.7084 5.00008C12.7084 6.49585 11.4958 7.70841 10 7.70841C8.50426 7.70841 7.2917 6.49585 7.2917 5.00008Z" fill="#888EA8"/>
<path fill-rule="evenodd" clip-rule="evenodd" d="M10 10.2084C8.07207 10.2084 6.2958 10.6467 4.97957 11.387C3.68293 12.1164 2.70836 13.2218 2.70836 14.5834L2.70831 14.6684C2.70737 15.6366 2.70619 16.8517 3.77204 17.7197C4.2966 18.1469 5.03043 18.4506 6.02187 18.6513C7.01608 18.8525 8.31189 18.9584 10 18.9584C11.6882 18.9584 12.984 18.8525 13.9782 18.6513C14.9696 18.4506 15.7035 18.1469 16.228 17.7197C17.2939 16.8517 17.2927 15.6366 17.2918 14.6684L17.2917 14.5834C17.2917 13.2218 16.3171 12.1164 15.0205 11.387C13.7043 10.6467 11.928 10.2084 10 10.2084ZM3.95836 14.5834C3.95836 13.874 4.47618 13.1044 5.5924 12.4765C6.68903 11.8596 8.24609 11.4584 10 11.4584C11.754 11.4584 13.311 11.8596 14.4077 12.4765C15.5239 13.1044 16.0417 13.874 16.0417 14.5834C16.0417 15.6732 16.0081 16.2867 15.4387 16.7504C15.1299 17.0019 14.6138 17.2473 13.7302 17.4261C12.8494 17.6044 11.6452 17.7084 10 17.7084C8.35484 17.7084 7.15065 17.6044 6.26986 17.4261C5.3863 17.2473 4.87013 17.0019 4.56135 16.7504C3.99196 16.2867 3.95836 15.6732 3.95836 14.5834Z" fill="#888EA8"/>
</svg>
