<svg width="25" height="26" viewBox="0 0 25 26" fill="none" xmlns="http://www.w3.org/2000/svg">
<path d="M23.7949 12.8418C23.7617 12.7676 22.9629 10.9971 21.1748 9.20898C19.5186 7.55273 16.6699 5.57812 12.5 5.57812C8.33008 5.57812 5.48145 7.55273 3.8252 9.20898C2.03712 10.9971 1.23829 12.7676 1.20509 12.8418C1.18334 12.8919 1.17212 12.9459 1.17212 13.0005C1.17212 13.0551 1.18334 13.1091 1.20509 13.1592C1.23829 13.2344 2.03712 15.0039 3.8252 16.792C5.48536 18.4521 8.33106 20.4219 12.5 20.4219C16.669 20.4219 19.5186 18.4482 21.1748 16.792C22.9629 15.0039 23.7617 13.2344 23.7949 13.1592C23.8167 13.1091 23.8279 13.0551 23.8279 13.0005C23.8279 12.9459 23.8167 12.8919 23.7949 12.8418ZM20.6016 16.2598C18.3486 18.5059 15.6211 19.6406 12.4961 19.6406C9.3711 19.6406 6.64747 18.5029 4.39063 16.2598C3.43036 15.3021 2.62278 14.2027 1.9961 13C2.62397 11.797 3.43288 10.6976 4.39454 9.74023C6.65137 7.49707 9.37501 6.35938 12.5 6.35938C15.625 6.35938 18.3486 7.49707 20.6055 9.74023C21.567 10.6977 22.3759 11.7971 23.0039 13C22.376 14.203 21.5671 15.3024 20.6055 16.2598H20.6016ZM12.5 8.70312C11.6502 8.70312 10.8194 8.95513 10.1128 9.42728C9.40617 9.89943 8.85543 10.5705 8.53021 11.3557C8.20499 12.1408 8.1199 13.0048 8.2857 13.8383C8.45149 14.6718 8.86073 15.4374 9.46166 16.0384C10.0626 16.6393 10.8282 17.0485 11.6617 17.2143C12.4952 17.3801 13.3592 17.295 14.1443 16.9698C14.9295 16.6446 15.6006 16.0938 16.0727 15.3872C16.5449 14.6806 16.7969 13.8498 16.7969 13C16.7956 11.8608 16.3425 10.7686 15.5369 9.96308C14.7314 9.15754 13.6392 8.70442 12.5 8.70312ZM12.5 16.5156C11.8047 16.5156 11.125 16.3094 10.5468 15.9231C9.96869 15.5368 9.51808 14.9878 9.25199 14.3454C8.9859 13.703 8.91628 12.9961 9.05193 12.3141C9.18758 11.6322 9.52242 11.0057 10.0141 10.5141C10.5058 10.0224 11.1322 9.68758 11.8141 9.55193C12.4961 9.41628 13.203 9.4859 13.8454 9.75199C14.4878 10.0181 15.0368 10.4687 15.4231 11.0468C15.8094 11.625 16.0156 12.3047 16.0156 13C16.0156 13.9324 15.6452 14.8266 14.9859 15.4859C14.3266 16.1452 13.4324 16.5156 12.5 16.5156Z" fill="#C3C7D3"/>
</svg>
